An extended edit of the Marshall Island's trip the Cabrinha crew hit for the annual photo shoot. The stars aligned to produce epic conditions in one of the most beautiful and remote places on earth. Just over 20 minutes long this video gives you a glimpse of life on the "Indies Trader" with ridiculous waves, crazy beautiful flat water sessions, and insane surf and SUP sessions when the wind died down.

General
Complete name : H:MoviesKiteBoarding Videoscabrinha_drifting_1280x720.mp4
Format : MPEG-4
Format profile : Base Media
Codec ID : isom
File size : 136 MiB
Duration : 20mn 55s
Overall bit rate : 908 Kbps
Encoded date : UTC 2012-01-28 12:15:34
Tagged date : UTC 2012-01-29 12:15:40
Video
ID : 1
Format : AVC
Format/Info : Advanced Video Codec
Format profile : High@L3.1
Format settings, CABAC : Yes
Format settings, ReFrames : 4 frames
Codec ID : avc1
Codec ID/Info : Advanced Video Coding
Duration : 20mn 55s
Bit rate mode : Variable
Bit rate : 749 Kbps
Maximum bit rate : 2 017 Kbps
Width : 1 280 pixels
Height : 720 pixels
Display aspect ratio : 16:9
Frame rate mode : Constant
Frame rate : 15.000 fps
Color space : YUV
Chroma subsampling : 4:2:0
Bit depth : 8 bits
Scan type : Progressive
Bits/(Pixel*Frame) : 0.054
Stream size : 112 MiB (82%)
Writing library : Vimeo Encoder
Encoded date : UTC 2012-01-28 12:15:34
Tagged date : UTC 2012-01-28 12:15:36
Audio
ID : 2
Format : AAC
Format/Info : Advanced Audio Codec
Format version : Version 4
Format profile : LC
Format settings, SBR : No
Codec ID : 40
Duration : 20mn 55s
Bit rate mode : Variable
Bit rate : 158 Kbps
Maximum bit rate : 244 Kbps
Channel(s) : 2 channels
Channel positions : Front: L R
Sampling rate : 44.1 KHz
Stream size : 23.6 MiB (17%)
Encoded date : UTC 2012-01-28 12:15:36
Tagged date : UTC 2012-01-28 12:15:36


Enjoy and don't forget to comment and seed !